<?xml version="1.0" encoding="UTF-8" standalone="no"?>
<!DOCTYPE svg PUBLIC "-//W3C//DTD SVG 1.1//EN" "http://www.w3.org/Graphics/SVG/1.1/DTD/svg11.dtd">
<svg version="1.1" xmlns="http://www.w3.org/2000/svg" xmlns:xlink="http://www.w3.org/1999/xlink" preserveAspectRatio="xMidYMid meet" viewBox="0 0 640 640" width="400" height="400"><defs><path d="M15.57 0C6.98 0 0.02 6.96 0.02 15.55C0.02 21.62 0.02 51.95 0.02 106.53L640 106.53C640 51.95 640 21.62 640 15.55C640 6.96 633.04 0 624.45 0C502.67 0 76.46 0 15.57 0Z" id="b8uPXwj0"></path><path d="M425.51 35.7C425.51 35.7 425.51 35.7 425.51 35.7C425.51 56.79 425.51 68.5 425.51 70.85C425.51 70.85 425.51 70.85 425.51 70.85C184.94 70.85 51.29 70.85 24.56 70.85C24.56 70.85 24.56 70.85 24.56 70.85C24.56 49.76 24.56 38.05 24.56 35.7C24.56 35.7 24.56 35.7 24.56 35.7C265.13 35.7 398.78 35.7 425.51 35.7Z" id="b15HtKLPxU"></path><path d="M475.69 35.72C465.99 35.72 458.12 43.58 458.12 53.29C458.12 62.99 465.99 70.86 475.69 70.86C485.4 70.86 493.26 62.99 493.26 53.29C493.26 43.58 485.4 35.72 475.69 35.72Z" id="a1fnbnTRW4"></path><path d="M538.36 35.72C528.66 35.72 520.79 43.58 520.79 53.29C520.79 62.99 528.66 70.86 538.36 70.86C548.07 70.86 555.93 62.99 555.93 53.29C555.93 43.58 548.07 35.72 538.36 35.72Z" id="a42usGT7JM"></path><path d="M601.01 35.72C591.31 35.72 583.44 43.58 583.44 53.29C583.44 62.99 591.31 70.86 601.01 70.86C610.72 70.86 618.58 62.99 618.58 53.29C618.58 43.58 610.72 35.72 601.01 35.72Z" id="blXwQ6ufi"></path><path d="M639.98 624.52C639.98 633.02 633 640 624.51 640C563.62 640 76.48 640 15.59 640C6.98 640 0 633.02 0 624.52C0 589.99 0 417.34 0 106.57L639.98 106.57C639.98 417.34 639.98 589.99 639.98 624.52Z" id="by0bUEELd"></path><path d="M176.5 257.26L202.29 257.26L202.29 286.74L221.65 286.74L221.65 311.39L202.29 311.39L202.29 351.93L176.5 351.93L176.5 311.39L107.41 311.39L107.41 287.44L166.6 190.93L196.31 190.93L138.05 286.74L176.5 286.74L176.5 257.26Z" id="bKYinxPgI"></path><path d="M313.1 187.07L314.7 187.14L316.27 187.24L317.82 187.37L319.36 187.53L320.87 187.71L322.36 187.92L323.83 188.17L325.28 188.43L326.71 188.73L328.12 189.06L329.5 189.41L330.87 189.8L332.22 190.21L333.54 190.65L334.85 191.11L336.13 191.61L337.39 192.13L338.64 192.69L339.86 193.27L341.06 193.88L342.24 194.52L343.4 195.18L344.54 195.88L345.66 196.6L346.75 197.35L347.83 198.13L348.89 198.94L349.92 199.78L350.94 200.64L351.93 201.53L352.9 202.46L353.85 203.41L354.79 204.38L355.7 205.39L356.59 206.42L357.46 207.49L358.3 208.58L359.13 209.7L359.94 210.84L360.73 212.01L361.49 213.19L362.24 214.39L362.97 215.61L363.67 216.85L364.36 218.11L365.02 219.39L365.67 220.68L366.29 222L366.89 223.34L367.47 224.69L368.04 226.06L368.58 227.46L369.1 228.87L369.6 230.3L370.08 231.75L370.54 233.22L370.98 234.71L371.4 236.22L371.8 237.74L372.18 239.29L372.53 240.86L372.87 242.44L373.19 244.04L373.48 245.67L373.76 247.31L374.01 248.97L374.25 250.65L374.46 252.35L374.66 254.06L374.83 255.8L374.98 257.56L375.12 259.33L375.23 261.13L375.32 262.94L375.39 264.77L375.44 266.63L375.47 268.5L375.48 270.39L375.47 272.28L375.44 274.15L375.39 276L375.32 277.84L375.23 279.65L375.12 281.44L374.98 283.22L374.83 284.98L374.66 286.71L374.46 288.43L374.25 290.13L374.01 291.81L373.76 293.47L373.48 295.12L373.19 296.74L372.87 298.34L372.53 299.93L372.18 301.49L371.8 303.04L371.4 304.56L370.98 306.07L370.54 307.56L370.08 309.03L369.6 310.48L369.1 311.91L368.58 313.32L368.04 314.72L367.47 316.09L366.89 317.45L366.29 318.78L365.67 320.1L365.02 321.39L364.36 322.67L363.67 323.93L362.97 325.17L362.24 326.39L361.49 327.59L360.73 328.78L359.94 329.94L359.13 331.08L358.3 332.2L357.46 333.29L356.59 334.36L355.7 335.39L354.79 336.4L353.85 337.38L352.9 338.33L351.93 339.25L350.94 340.14L349.92 341.01L348.89 341.84L347.83 342.65L346.75 343.43L345.66 344.18L344.54 344.91L343.4 345.6L342.24 346.27L341.06 346.9L339.86 347.51L338.64 348.1L337.39 348.65L336.13 349.17L334.85 349.67L333.54 350.14L332.22 350.58L330.87 350.99L329.5 351.37L328.12 351.72L326.71 352.05L325.28 352.35L323.83 352.62L322.36 352.86L320.87 353.07L319.36 353.25L317.82 353.41L316.27 353.54L314.7 353.64L313.1 353.71L311.49 353.75L309.85 353.76L308.21 353.75L306.6 353.71L305 353.64L303.43 353.54L301.88 353.41L300.34 353.25L298.83 353.07L297.34 352.86L295.87 352.62L294.42 352.35L292.99 352.05L291.58 351.72L290.19 351.37L288.83 350.99L287.48 350.58L286.16 350.14L284.85 349.67L283.57 349.17L282.3 348.65L281.06 348.1L279.84 347.51L278.64 346.9L277.46 346.27L276.3 345.6L275.16 344.91L274.04 344.18L272.94 343.43L271.87 342.65L270.81 341.84L269.78 341.01L268.76 340.14L267.77 339.25L266.8 338.33L265.84 337.38L264.91 336.4L264 335.39L263.11 334.36L262.24 333.29L261.39 332.2L260.57 331.08L259.76 329.94L258.97 328.78L258.2 327.59L257.46 326.39L256.73 325.17L256.03 323.93L255.34 322.67L254.68 321.39L254.03 320.1L253.41 318.78L252.81 317.45L252.22 316.09L251.66 314.72L251.12 313.32L250.6 311.91L250.1 310.48L249.62 309.03L249.16 307.56L248.72 306.07L248.3 304.56L247.9 303.04L247.52 301.49L247.17 299.93L246.83 298.34L246.51 296.74L246.22 295.12L245.94 293.47L245.68 291.81L245.45 290.13L245.24 288.43L245.04 286.71L244.87 284.98L244.71 283.22L244.58 281.44L244.47 279.65L244.38 277.84L244.31 276L244.26 274.15L244.22 272.28L244.21 270.39L244.22 268.5L244.26 266.63L244.31 264.77L244.38 262.94L244.47 261.13L244.58 259.33L244.71 257.56L244.87 255.8L245.04 254.06L245.24 252.35L245.45 250.65L245.68 248.97L245.94 247.31L246.22 245.66L246.51 244.04L246.83 242.44L247.17 240.85L247.52 239.29L247.9 237.74L248.3 236.22L248.72 234.71L249.16 233.22L249.62 231.75L250.1 230.3L250.6 228.87L251.12 227.46L251.66 226.06L252.22 224.69L252.81 223.34L253.41 222L254.03 220.68L254.68 219.39L255.34 218.11L256.03 216.85L256.73 215.61L257.46 214.39L258.2 213.19L258.97 212.01L259.76 210.84L260.57 209.7L261.39 208.58L262.24 207.49L263.11 206.42L264 205.39L264.91 204.38L265.84 203.41L266.8 202.46L267.77 201.53L268.76 200.64L269.78 199.78L270.81 198.94L271.87 198.13L272.94 197.35L274.04 196.6L275.16 195.88L276.3 195.18L277.46 194.52L278.64 193.88L279.84 193.27L281.06 192.69L282.3 192.14L283.57 191.61L284.85 191.11L286.16 190.65L287.48 190.21L288.83 189.8L290.19 189.41L291.58 189.06L292.99 188.73L294.42 188.43L295.87 188.17L297.34 187.92L298.83 187.71L300.34 187.53L301.88 187.37L303.43 187.24L305 187.14L306.6 187.07L308.21 187.03L309.85 187.02L311.49 187.03L313.1 187.07ZM307.85 210.32L306.87 210.37L305.9 210.44L304.95 210.54L304.01 210.65L303.08 210.79L302.17 210.94L301.27 211.12L300.38 211.31L299.51 211.53L298.65 211.77L297.81 212.03L296.97 212.31L296.15 212.61L295.35 212.93L294.56 213.27L293.78 213.64L293.01 214.02L292.26 214.42L291.52 214.85L290.79 215.3L290.08 215.76L289.38 216.25L288.7 216.76L288.03 217.29L287.37 217.83L286.72 218.4L286.09 218.99L285.47 219.61L284.87 220.24L284.27 220.89L283.69 221.56L283.13 222.26L282.58 222.97L282.04 223.71L281.51 224.47L281 225.24L280.51 226.04L280.02 226.86L279.55 227.69L279.09 228.54L278.64 229.4L278.21 230.28L277.78 231.17L277.37 232.07L276.97 232.98L276.58 233.91L276.21 234.85L275.84 235.8L275.49 236.76L275.15 237.74L274.82 238.73L274.5 239.74L274.2 240.76L273.91 241.79L273.63 242.83L273.36 243.88L273.1 244.95L272.86 246.03L272.62 247.13L272.4 248.24L272.19 249.36L271.99 250.49L271.81 251.64L271.64 252.8L271.47 253.97L271.33 255.15L271.19 256.35L271.06 257.56L270.95 258.79L270.85 260.03L270.76 261.28L270.68 262.54L270.61 263.81L270.56 265.1L270.52 266.4L270.49 267.72L270.47 269.05L270.46 270.39L270.47 271.73L270.49 273.06L270.52 274.37L270.56 275.67L270.61 276.96L270.68 278.24L270.76 279.5L270.85 280.75L270.95 281.99L271.06 283.21L271.19 284.43L271.33 285.62L271.47 286.81L271.64 287.98L271.81 289.14L271.99 290.29L272.19 291.42L272.4 292.54L272.62 293.65L272.86 294.75L273.1 295.83L273.36 296.9L273.63 297.95L273.91 299L274.2 300.03L274.5 301.04L274.82 302.05L275.15 303.04L275.49 304.02L275.84 304.98L276.21 305.93L276.58 306.87L276.97 307.8L277.37 308.71L277.78 309.61L278.21 310.5L278.64 311.38L279.09 312.24L279.55 313.09L280.02 313.92L280.51 314.74L281 315.54L281.51 316.32L282.04 317.07L282.58 317.81L283.13 318.52L283.69 319.22L284.27 319.89L284.87 320.54L285.47 321.18L286.09 321.79L286.72 322.38L287.37 322.95L288.03 323.5L288.7 324.02L289.38 324.53L290.08 325.02L290.79 325.49L291.52 325.93L292.26 326.36L293.01 326.76L293.78 327.14L294.56 327.51L295.35 327.85L296.15 328.17L296.97 328.47L297.81 328.75L298.65 329.01L299.51 329.25L300.38 329.47L301.27 329.66L302.17 329.84L303.08 329.99L304.01 330.13L304.95 330.24L305.9 330.34L306.87 330.41L307.85 330.46L308.84 330.49L309.85 330.5L310.86 330.49L311.85 330.46L312.83 330.41L313.79 330.34L314.74 330.25L315.68 330.13L316.61 330L317.52 329.84L318.42 329.67L319.3 329.47L320.17 329.26L321.02 329.02L321.87 328.76L322.7 328.49L323.51 328.19L324.31 327.87L325.1 327.53L325.87 327.17L326.63 326.79L327.38 326.39L328.11 325.96L328.83 325.52L329.54 325.06L330.23 324.57L330.91 324.07L331.58 323.55L332.23 323L332.86 322.43L333.49 321.85L334.1 321.24L334.69 320.61L335.28 319.96L335.85 319.3L336.4 318.61L336.95 317.9L337.47 317.16L337.99 316.41L338.49 315.64L338.98 314.85L339.45 314.04L339.91 313.21L340.36 312.36L340.8 311.51L341.22 310.64L341.64 309.75L342.04 308.85L342.43 307.94L342.81 307.02L343.17 306.08L343.53 305.13L343.87 304.17L344.2 303.19L344.52 302.2L344.83 301.2L345.13 300.18L345.42 299.15L345.69 298.1L345.95 297.05L346.2 295.97L346.44 294.89L346.67 293.79L346.88 292.68L347.09 291.56L347.28 290.42L347.46 289.27L347.63 288.1L347.79 286.92L347.93 285.73L348.06 284.53L348.19 283.31L348.3 282.08L348.4 280.83L348.48 279.57L348.56 278.3L348.62 277.01L348.68 275.72L348.72 274.4L348.75 273.08L348.76 271.74L348.77 270.39L348.76 269.04L348.75 267.7L348.72 266.37L348.68 265.06L348.62 263.76L348.56 262.48L348.48 261.2L348.4 259.95L348.3 258.7L348.19 257.47L348.06 256.25L347.93 255.05L347.79 253.86L347.63 252.68L347.46 251.51L347.28 250.36L347.09 249.22L346.88 248.1L346.67 246.99L346.44 245.89L346.2 244.81L345.95 243.73L345.69 242.68L345.42 241.63L345.13 240.6L344.83 239.58L344.52 238.58L344.2 237.59L343.87 236.61L343.53 235.65L343.17 234.7L342.81 233.76L342.43 232.84L342.04 231.92L341.64 231.03L341.22 230.14L340.8 229.27L340.36 228.42L339.91 227.57L339.45 226.74L338.98 225.93L338.49 225.14L337.99 224.37L337.47 223.61L336.95 222.88L336.4 222.17L335.85 221.48L335.28 220.81L334.69 220.17L334.1 219.54L333.49 218.93L332.86 218.34L332.23 217.78L331.58 217.23L330.91 216.71L330.23 216.2L329.54 215.72L328.83 215.26L328.11 214.81L327.38 214.39L326.63 213.99L325.87 213.61L325.1 213.25L324.31 212.91L323.51 212.59L322.7 212.29L321.87 212.02L321.02 211.76L320.17 211.52L319.3 211.31L318.42 211.11L317.52 210.94L316.61 210.78L315.68 210.65L314.74 210.53L313.79 210.44L312.83 210.37L311.85 210.32L310.86 210.29L309.85 210.28L308.84 210.29L307.85 210.32Z" id="eESqbxNF9"></path><path d="M466.69 257.26L492.48 257.26L492.48 286.74L511.83 286.74L511.83 311.39L492.48 311.39L492.48 351.93L466.69 351.93L466.69 311.39L397.6 311.39L397.6 287.44L456.79 190.93L486.49 190.93L428.23 286.74L466.69 286.74L466.69 257.26Z" id="a3rhrGwZt"></path><path d="M164.48 419.4L165.16 419.42L165.82 419.45L166.47 419.49L167.11 419.53L167.74 419.58L168.35 419.64L168.96 419.71L169.55 419.79L170.13 419.88L170.7 419.97L171.26 420.07L171.81 420.18L172.34 420.3L172.87 420.43L173.38 420.56L173.88 420.7L174.37 420.86L174.85 421.01L175.31 421.18L175.77 421.36L176.21 421.54L176.64 421.73L177.06 421.93L177.47 422.14L177.87 422.36L178.26 422.58L178.63 422.81L178.99 423.05L179.34 423.3L179.68 423.56L180.01 423.83L180.33 424.1L180.64 424.38L180.93 424.67L181.22 424.97L181.5 425.28L181.77 425.6L182.03 425.93L182.28 426.27L182.52 426.61L182.75 426.96L182.97 427.33L183.18 427.7L183.38 428.08L183.57 428.47L183.75 428.86L183.92 429.27L184.08 429.69L184.23 430.11L184.37 430.54L184.5 430.98L184.63 431.43L184.74 431.89L184.84 432.36L184.93 432.84L185.02 433.33L185.09 433.82L185.15 434.32L185.21 434.84L185.25 435.36L185.29 435.89L185.31 436.43L185.32 436.97L185.33 437.53L185.32 438.09L185.31 438.63L185.28 439.17L185.25 439.7L185.21 440.22L185.15 440.73L185.09 441.23L185.01 441.73L184.93 442.21L184.83 442.69L184.73 443.15L184.61 443.61L184.49 444.06L184.35 444.49L184.21 444.92L184.05 445.34L183.89 445.75L183.71 446.16L183.53 446.55L183.34 446.93L183.13 447.31L182.92 447.67L182.69 448.03L182.46 448.37L182.21 448.71L181.96 449.04L181.69 449.36L181.42 449.67L181.14 449.97L180.84 450.27L180.54 450.55L180.22 450.82L179.9 451.09L179.56 451.34L179.22 451.59L178.86 451.84L178.5 452.07L178.12 452.29L177.73 452.51L177.34 452.72L176.93 452.92L176.51 453.12L176.08 453.3L175.64 453.48L175.19 453.65L174.72 453.81L174.25 453.96L173.77 454.11L173.27 454.25L172.77 454.38L172.25 454.5L171.73 454.62L171.19 454.72L170.64 454.82L170.08 454.91L169.51 455L168.93 455.07L168.34 455.14L167.74 455.2L167.13 455.25L166.51 455.29L165.88 455.33L165.23 455.35L164.58 455.37L163.91 455.39L163.24 455.39L154.21 455.39L154.21 470.33L145.6 470.33L145.6 419.38L163.1 419.38L163.8 419.39L164.48 419.4ZM154.21 447.58L164.19 447.58L165.13 447.57L166.02 447.54L166.87 447.48L167.68 447.39L168.45 447.28L169.18 447.15L169.87 446.99L170.51 446.81L171.12 446.6L171.69 446.37L172.22 446.12L172.7 445.84L173.15 445.53L173.56 445.21L173.92 444.85L174.25 444.48L174.57 444.08L174.85 443.66L175.12 443.22L175.36 442.75L175.58 442.26L175.77 441.75L175.95 441.21L176.1 440.66L176.22 440.08L176.33 439.47L176.41 438.85L176.47 438.2L176.5 437.53L176.51 436.84L176.5 436.14L176.45 435.48L176.38 434.85L176.28 434.24L176.15 433.66L175.99 433.1L175.8 432.58L175.58 432.08L175.33 431.61L175.05 431.17L174.75 430.75L174.41 430.36L174.05 430L173.65 429.67L173.23 429.36L172.77 429.08L172.29 428.82L171.77 428.58L171.22 428.35L170.63 428.15L170.01 427.96L169.36 427.8L168.67 427.65L167.96 427.53L167.2 427.42L166.42 427.33L165.6 427.26L164.75 427.21L163.87 427.18L162.96 427.17L154.21 427.17L154.21 447.58Z" id="i6eFAut90"></path><path d="M210.21 430.98L210.58 431L210.95 431.02L211.31 431.04L211.67 431.07L212.02 431.1L212.37 431.14L212.72 431.19L213.07 431.24L213.41 431.3L213.74 431.36L214.07 431.42L214.4 431.5L214.73 431.57L215.05 431.66L215.36 431.74L215.68 431.84L215.98 431.94L216.29 432.04L216.59 432.15L216.89 432.27L217.18 432.39L217.47 432.51L217.75 432.64L218.04 432.78L218.31 432.92L218.59 433.07L218.86 433.22L219.12 433.38L219.38 433.54L219.64 433.71L219.9 433.88L220.15 434.06L220.39 434.25L220.64 434.44L220.87 434.63L221.1 434.83L221.33 435.04L221.55 435.25L221.76 435.47L221.96 435.7L222.16 435.93L222.35 436.17L222.54 436.41L222.71 436.66L222.88 436.92L223.05 437.18L223.21 437.45L223.36 437.73L223.5 438.01L223.64 438.3L223.77 438.59L223.89 438.89L224.01 439.19L224.12 439.51L224.22 439.82L224.32 440.15L224.41 440.48L224.49 440.82L224.57 441.16L224.64 441.51L224.71 441.86L224.76 442.22L224.81 442.59L224.86 442.96L224.89 443.34L224.92 443.73L224.95 444.12L224.96 444.52L224.97 444.92L224.98 445.33L224.98 470.33L217.54 470.33L217.54 465.16L217.28 465.47L217 465.78L216.72 466.08L216.44 466.37L216.15 466.65L215.85 466.92L215.55 467.18L215.25 467.43L214.93 467.68L214.62 467.91L214.3 468.14L213.97 468.36L213.64 468.57L213.31 468.77L212.97 468.96L212.62 469.14L212.27 469.31L211.91 469.48L211.55 469.63L211.19 469.78L210.82 469.92L210.44 470.05L210.06 470.17L209.67 470.28L209.28 470.38L208.89 470.47L208.48 470.56L208.08 470.63L207.67 470.7L207.25 470.76L206.83 470.81L206.4 470.85L205.97 470.88L205.53 470.9L205.09 470.91L204.65 470.92L204.31 470.92L203.98 470.91L203.65 470.89L203.33 470.88L203.01 470.85L202.69 470.82L202.37 470.79L202.06 470.75L201.75 470.7L201.45 470.65L201.14 470.6L200.84 470.54L200.55 470.47L200.26 470.4L199.97 470.32L199.68 470.24L199.4 470.15L199.12 470.06L198.84 469.96L198.57 469.86L198.3 469.75L198.03 469.64L197.76 469.52L197.5 469.4L197.25 469.27L196.99 469.13L196.74 468.99L196.49 468.85L196.25 468.7L196.01 468.54L195.77 468.38L195.53 468.21L195.3 468.04L195.07 467.86L194.85 467.68L194.62 467.49L194.41 467.3L194.19 467.11L193.99 466.91L193.79 466.7L193.59 466.5L193.41 466.29L193.23 466.07L193.05 465.86L192.88 465.64L192.72 465.41L192.56 465.18L192.41 464.95L192.27 464.72L192.13 464.48L192 464.24L191.87 463.99L191.75 463.74L191.64 463.49L191.53 463.24L191.43 462.98L191.34 462.71L191.25 462.45L191.16 462.18L191.09 461.9L191.02 461.63L190.95 461.35L190.9 461.06L190.84 460.77L190.8 460.48L190.76 460.19L190.72 459.89L190.7 459.59L190.68 459.28L190.66 458.97L190.65 458.66L190.65 458.34L190.65 458.03L190.66 457.72L190.68 457.41L190.7 457.11L190.73 456.81L190.76 456.52L190.81 456.23L190.86 455.94L190.91 455.66L190.97 455.39L191.04 455.11L191.12 454.85L191.2 454.59L191.29 454.33L191.38 454.07L191.48 453.83L191.59 453.58L191.7 453.34L191.83 453.1L191.95 452.87L192.09 452.65L192.23 452.42L192.37 452.21L192.53 451.99L192.69 451.78L192.85 451.58L193.03 451.38L193.2 451.18L193.39 450.99L193.58 450.8L193.78 450.62L193.99 450.44L194.2 450.27L194.42 450.1L194.64 449.94L194.87 449.78L195.11 449.62L195.35 449.47L195.6 449.32L195.85 449.18L196.11 449.04L196.37 448.91L196.63 448.78L196.9 448.65L197.18 448.53L197.45 448.42L197.74 448.31L198.03 448.2L198.32 448.1L198.62 448L198.92 447.9L199.22 447.81L199.53 447.73L199.85 447.65L200.17 447.57L200.5 447.5L200.82 447.43L201.16 447.37L201.5 447.31L201.84 447.25L202.19 447.2L202.54 447.15L202.9 447.11L203.26 447.08L203.63 447.04L204 447.01L204.37 446.99L204.75 446.97L205.14 446.96L205.53 446.94L205.92 446.94L206.32 446.94L216.89 446.94L216.89 445.47L216.88 445.05L216.86 444.64L216.83 444.24L216.78 443.85L216.72 443.48L216.65 443.11L216.56 442.76L216.46 442.42L216.35 442.1L216.22 441.78L216.08 441.48L215.93 441.18L215.76 440.9L215.59 440.64L215.39 440.38L215.19 440.14L214.97 439.9L214.74 439.68L214.49 439.47L214.23 439.28L213.96 439.09L213.67 438.92L213.38 438.76L213.06 438.61L212.74 438.47L212.4 438.35L212.05 438.23L211.68 438.13L211.3 438.04L210.91 437.97L210.51 437.9L210.09 437.85L209.66 437.8L209.21 437.77L208.76 437.76L208.28 437.75L207.98 437.75L207.68 437.76L207.38 437.78L207.08 437.8L206.78 437.83L206.48 437.86L206.17 437.9L205.87 437.95L205.56 438L205.26 438.05L204.95 438.12L204.64 438.19L204.34 438.26L204.03 438.35L203.72 438.43L203.41 438.53L203.1 438.63L202.79 438.74L202.47 438.85L202.16 438.97L201.85 439.09L201.53 439.22L201.22 439.36L200.9 439.5L200.59 439.65L200.27 439.8L199.95 439.96L199.63 440.13L199.31 440.3L198.99 440.48L198.67 440.67L198.35 440.86L198.03 441.06L197.7 441.26L197.38 441.47L197.06 441.68L193.42 436.58L193.81 436.27L194.21 435.97L194.61 435.68L195.01 435.4L195.42 435.13L195.83 434.87L196.24 434.61L196.65 434.37L197.07 434.13L197.49 433.9L197.91 433.68L198.34 433.47L198.77 433.26L199.2 433.07L199.64 432.88L200.07 432.7L200.52 432.54L200.96 432.38L201.41 432.22L201.86 432.08L202.31 431.95L202.77 431.82L203.22 431.7L203.69 431.6L204.15 431.5L204.62 431.41L205.09 431.32L205.56 431.25L206.04 431.19L206.52 431.13L207 431.08L207.48 431.04L207.97 431.01L208.46 430.99L208.96 430.98L209.45 430.97L209.83 430.98L210.21 430.98ZM205.78 452.69L204.15 452.9L202.73 453.24L201.53 453.72L200.55 454.33L199.79 455.08L199.24 455.97L198.92 457L198.81 458.16L198.83 458.78L198.92 459.36L199.05 459.91L199.24 460.42L199.49 460.9L199.78 461.35L200.14 461.77L200.54 462.15L201 462.5L201.51 462.81L202.05 463.09L202.65 463.33L203.28 463.53L203.96 463.69L204.67 463.82L205.43 463.92L206.24 463.97L207.08 463.99L207.93 463.96L208.76 463.88L209.57 463.75L210.35 463.56L211.11 463.32L211.84 463.02L212.55 462.67L213.24 462.26L213.9 461.8L214.51 461.3L215.05 460.75L215.52 460.17L215.91 459.56L216.24 458.9L216.49 458.21L216.67 457.48L216.78 456.71L216.82 455.9L216.82 452.62L207.64 452.62L205.78 452.69Z" id="e1SXTgdAP"></path><path d="M252.31 430.98L252.68 431L253.05 431.03L253.42 431.07L253.79 431.11L254.15 431.16L254.5 431.22L254.86 431.29L255.21 431.37L255.55 431.45L255.9 431.54L256.24 431.64L256.57 431.75L256.91 431.86L257.23 431.98L257.56 432.11L257.88 432.25L258.2 432.4L258.51 432.55L258.82 432.72L259.13 432.89L259.44 433.07L259.74 433.25L260.03 433.45L260.32 433.65L260.61 433.86L260.9 434.08L261.18 434.3L261.46 434.54L261.73 434.78L262 435.03L262.27 435.28L262.54 435.55L262.8 435.82L263.05 436.11L263.31 436.39L263.56 436.69L263.8 437L264.04 437.31L264.04 431.55L272.2 431.55L272.2 465.38L272.2 465.89L272.19 466.39L272.17 466.89L272.15 467.38L272.12 467.87L272.08 468.34L272.03 468.82L271.98 469.28L271.92 469.74L271.85 470.19L271.78 470.64L271.7 471.08L271.62 471.51L271.52 471.94L271.42 472.36L271.31 472.78L271.2 473.18L271.08 473.59L270.95 473.98L270.81 474.37L270.67 474.75L270.52 475.13L270.36 475.5L270.2 475.86L270.03 476.22L269.85 476.57L269.67 476.91L269.48 477.25L269.28 477.58L269.07 477.9L268.86 478.22L268.64 478.53L268.41 478.84L268.18 479.13L267.94 479.43L267.69 479.71L267.44 479.99L267.18 480.26L266.91 480.53L266.63 480.79L266.35 481.04L266.07 481.29L265.78 481.53L265.49 481.77L265.19 482L264.89 482.22L264.59 482.43L264.28 482.64L263.96 482.84L263.65 483.04L263.33 483.23L263 483.41L262.67 483.59L262.34 483.76L262 483.92L261.66 484.08L261.32 484.23L260.97 484.37L260.62 484.51L260.26 484.64L259.9 484.77L259.54 484.89L259.17 485L258.8 485.11L258.42 485.21L258.04 485.3L257.66 485.39L257.27 485.47L256.88 485.54L256.48 485.61L256.08 485.67L255.68 485.72L255.27 485.77L254.86 485.81L254.44 485.85L254.02 485.88L253.6 485.9L253.17 485.91L252.74 485.92L252.31 485.93L251.87 485.92L251.43 485.91L251 485.9L250.57 485.87L250.15 485.84L249.72 485.8L249.3 485.76L248.87 485.71L248.45 485.65L248.04 485.59L247.62 485.51L247.21 485.44L246.8 485.35L246.39 485.26L245.98 485.16L245.58 485.05L245.17 484.94L244.77 484.82L244.38 484.7L243.98 484.56L243.58 484.42L243.19 484.28L242.8 484.12L242.41 483.96L242.03 483.79L241.64 483.62L241.26 483.44L240.88 483.25L240.5 483.06L240.13 482.85L239.76 482.65L239.38 482.43L239.01 482.21L238.65 481.98L238.28 481.74L237.92 481.5L237.56 481.25L237.2 480.99L236.84 480.73L236.49 480.46L240.35 474.27L240.64 474.48L240.92 474.69L241.21 474.89L241.49 475.08L241.78 475.27L242.06 475.46L242.35 475.64L242.63 475.81L242.92 475.98L243.2 476.15L243.49 476.31L243.78 476.46L244.06 476.61L244.35 476.75L244.64 476.89L244.92 477.02L245.21 477.15L245.5 477.27L245.78 477.38L246.07 477.49L246.36 477.6L246.64 477.7L246.93 477.79L247.22 477.88L247.51 477.96L247.8 478.04L248.08 478.11L248.37 478.18L248.66 478.24L248.95 478.3L249.24 478.35L249.53 478.4L249.81 478.44L250.1 478.47L250.39 478.5L250.68 478.53L250.97 478.54L251.26 478.56L251.55 478.57L251.84 478.57L252.13 478.57L252.41 478.56L252.69 478.55L252.97 478.54L253.25 478.52L253.52 478.5L253.79 478.48L254.06 478.45L254.32 478.42L254.59 478.38L254.84 478.34L255.1 478.3L255.35 478.25L255.6 478.2L255.85 478.15L256.09 478.09L256.33 478.03L256.57 477.96L256.8 477.89L257.03 477.82L257.26 477.74L257.48 477.66L257.71 477.58L257.92 477.49L258.14 477.4L258.35 477.3L258.56 477.2L258.77 477.1L258.97 477L259.18 476.89L259.37 476.77L259.57 476.65L259.76 476.53L259.95 476.41L260.14 476.28L260.32 476.15L260.5 476.01L260.68 475.87L260.85 475.73L261.02 475.58L261.19 475.43L261.35 475.27L261.51 475.11L261.67 474.95L261.82 474.78L261.96 474.6L262.1 474.42L262.24 474.24L262.37 474.05L262.5 473.86L262.63 473.66L262.75 473.46L262.87 473.26L262.98 473.05L263.09 472.83L263.19 472.62L263.29 472.39L263.38 472.17L263.48 471.93L263.56 471.7L263.64 471.46L263.72 471.21L263.8 470.96L263.87 470.71L263.93 470.45L263.99 470.18L264.05 469.92L264.1 469.64L264.15 469.37L264.2 469.09L264.24 468.8L264.27 468.51L264.3 468.22L264.33 467.92L264.35 467.61L264.37 467.31L264.39 466.99L264.4 466.68L264.4 466.36L264.41 466.03L264.41 461.07L264.31 461.24L264.22 461.41L264.12 461.58L264.03 461.75L263.93 461.91L263.82 462.07L263.72 462.23L263.61 462.39L263.51 462.55L263.4 462.7L263.29 462.85L263.17 463.01L263.06 463.16L262.94 463.3L262.82 463.45L262.7 463.59L262.57 463.74L262.45 463.88L262.32 464.02L262.19 464.16L262.06 464.29L261.93 464.43L261.79 464.56L261.65 464.69L261.51 464.82L261.37 464.94L261.23 465.07L261.09 465.19L260.94 465.32L260.79 465.44L260.64 465.55L260.49 465.67L260.33 465.79L260.17 465.9L260.01 466.01L259.85 466.12L259.69 466.23L259.53 466.33L259.36 466.44L259.19 466.54L259.02 466.64L258.85 466.74L258.68 466.83L258.51 466.93L258.33 467.02L258.16 467.11L257.98 467.19L257.81 467.27L257.63 467.35L257.45 467.43L257.27 467.51L257.09 467.58L256.9 467.65L256.72 467.72L256.54 467.78L256.35 467.85L256.16 467.91L255.98 467.96L255.79 468.02L255.6 468.07L255.41 468.12L255.21 468.17L255.02 468.21L254.83 468.25L254.63 468.29L254.44 468.33L254.24 468.36L254.04 468.4L253.84 468.43L253.64 468.45L253.44 468.48L253.24 468.5L253.03 468.52L252.83 468.53L252.62 468.55L252.42 468.56L252.21 468.57L252 468.57L251.79 468.58L251.58 468.58L251.19 468.58L250.81 468.57L250.44 468.55L250.06 468.53L249.69 468.5L249.32 468.46L248.96 468.41L248.6 468.36L248.24 468.31L247.89 468.24L247.54 468.17L247.19 468.09L246.85 468.01L246.51 467.92L246.18 467.82L245.84 467.72L245.51 467.61L245.19 467.49L244.87 467.36L244.55 467.23L244.23 467.09L243.92 466.95L243.61 466.8L243.31 466.64L243 466.47L242.71 466.3L242.41 466.12L242.12 465.94L241.83 465.75L241.55 465.55L241.27 465.34L240.99 465.13L240.72 464.91L240.45 464.68L240.18 464.45L239.92 464.21L239.66 463.97L239.4 463.71L239.15 463.45L238.9 463.19L238.65 462.92L238.41 462.64L238.18 462.36L237.95 462.08L237.73 461.8L237.52 461.51L237.31 461.22L237.11 460.92L236.92 460.63L236.73 460.33L236.54 460.02L236.37 459.71L236.2 459.4L236.03 459.09L235.88 458.77L235.72 458.45L235.58 458.13L235.44 457.8L235.31 457.47L235.18 457.14L235.06 456.8L234.94 456.46L234.84 456.12L234.73 455.77L234.64 455.42L234.55 455.06L234.46 454.71L234.39 454.35L234.32 453.98L234.25 453.62L234.19 453.25L234.14 452.88L234.09 452.5L234.05 452.12L234.02 451.74L233.99 451.35L233.97 450.96L233.95 450.57L233.95 450.17L233.94 449.77L233.95 449.37L233.95 448.98L233.97 448.58L233.99 448.2L234.02 447.81L234.05 447.43L234.09 447.05L234.14 446.67L234.19 446.3L234.25 445.93L234.32 445.56L234.39 445.2L234.46 444.84L234.55 444.48L234.64 444.13L234.73 443.78L234.84 443.43L234.94 443.09L235.06 442.75L235.18 442.41L235.31 442.08L235.44 441.75L235.58 441.42L235.72 441.1L235.88 440.78L236.03 440.46L236.2 440.15L236.37 439.84L236.54 439.53L236.73 439.22L236.92 438.92L237.11 438.63L237.31 438.33L237.52 438.04L237.73 437.75L237.95 437.47L238.18 437.19L238.41 436.91L238.65 436.63L238.9 436.36L239.15 436.1L239.4 435.84L239.66 435.58L239.92 435.34L240.18 435.1L240.45 434.87L240.72 434.64L240.99 434.42L241.27 434.21L241.55 434L241.83 433.8L242.12 433.61L242.41 433.43L242.7 433.25L243 433.07L243.3 432.91L243.61 432.75L243.91 432.6L244.22 432.45L244.54 432.32L244.86 432.19L245.18 432.06L245.5 431.94L245.83 431.83L246.16 431.73L246.5 431.63L246.84 431.54L247.18 431.45L247.52 431.38L247.87 431.31L248.22 431.24L248.58 431.18L248.94 431.13L249.3 431.09L249.66 431.05L250.03 431.02L250.41 431L250.78 430.98L251.16 430.97L251.54 430.97L251.93 430.97L252.31 430.98ZM251.44 437.6L250.78 437.69L250.15 437.82L249.53 437.98L248.93 438.18L248.36 438.42L247.8 438.69L247.27 439L246.76 439.35L246.26 439.73L245.79 440.15L245.34 440.61L244.91 441.1L244.5 441.62L244.12 442.15L243.78 442.69L243.46 443.24L243.18 443.81L242.92 444.39L242.69 444.98L242.5 445.58L242.33 446.19L242.19 446.82L242.09 447.46L242.01 448.11L241.97 448.77L241.95 449.45L241.97 450.12L242.01 450.79L242.09 451.43L242.19 452.07L242.33 452.69L242.5 453.3L242.69 453.89L242.92 454.48L243.18 455.04L243.46 455.6L243.78 456.14L244.12 456.67L244.5 457.18L244.91 457.68L245.34 458.16L245.79 458.6L246.27 459.01L246.76 459.38L247.27 459.72L247.81 460.02L248.37 460.28L248.95 460.51L249.54 460.71L250.16 460.86L250.8 460.99L251.47 461.08L252.15 461.13L252.85 461.15L253.55 461.13L254.24 461.08L254.9 460.99L255.55 460.87L256.18 460.72L256.79 460.53L257.37 460.31L257.94 460.05L258.49 459.76L259.02 459.43L259.53 459.07L260.02 458.68L260.49 458.25L260.94 457.79L261.37 457.3L261.76 456.8L262.13 456.28L262.46 455.74L262.76 455.19L263.03 454.62L263.27 454.03L263.47 453.42L263.65 452.8L263.79 452.17L263.9 451.51L263.98 450.84L264.03 450.15L264.04 449.45L264.03 448.74L263.98 448.05L263.9 447.38L263.79 446.72L263.64 446.07L263.47 445.45L263.26 444.84L263.02 444.24L262.75 443.66L262.44 443.09L262.11 442.54L261.74 442.01L261.34 441.49L260.91 440.99L260.45 440.51L259.97 440.07L259.48 439.66L258.97 439.29L258.44 438.96L257.89 438.66L257.32 438.39L256.73 438.16L256.13 437.97L255.5 437.81L254.86 437.69L254.2 437.6L253.52 437.54L252.82 437.53L252.12 437.54L251.44 437.6Z" id="afltFCMC9"></path><path d="M301.98 430.99L302.41 431.01L302.84 431.03L303.26 431.07L303.68 431.11L304.1 431.15L304.51 431.21L304.92 431.27L305.32 431.34L305.72 431.42L306.12 431.5L306.51 431.6L306.9 431.7L307.29 431.8L307.67 431.92L308.05 432.04L308.42 432.17L308.8 432.3L309.16 432.45L309.53 432.6L309.89 432.76L310.25 432.92L310.6 433.09L310.95 433.28L311.29 433.46L311.64 433.66L311.98 433.86L312.31 434.07L312.64 434.29L312.97 434.51L313.29 434.74L313.61 434.98L313.93 435.23L314.24 435.48L314.55 435.75L314.86 436.01L315.15 436.29L315.44 436.57L315.72 436.85L315.99 437.14L316.25 437.44L316.5 437.74L316.74 438.05L316.98 438.36L317.2 438.68L317.42 439L317.63 439.33L317.83 439.66L318.03 440L318.21 440.35L318.39 440.7L318.55 441.06L318.71 441.42L318.86 441.79L319 442.16L319.13 442.54L319.26 442.93L319.37 443.32L319.48 443.71L319.58 444.12L319.67 444.52L319.75 444.94L319.82 445.35L319.89 445.78L319.94 446.21L319.99 446.64L320.03 447.08L320.06 447.53L320.08 447.98L320.09 448.44L320.1 448.9L320.1 454.51L289.7 454.51L289.72 454.75L289.74 454.98L289.77 455.21L289.81 455.43L289.85 455.66L289.89 455.88L289.94 456.1L289.99 456.31L290.05 456.52L290.12 456.74L290.18 456.94L290.26 457.15L290.34 457.35L290.42 457.55L290.51 457.75L290.61 457.95L290.71 458.14L290.81 458.33L290.92 458.52L291.04 458.7L291.16 458.89L291.28 459.07L291.41 459.25L291.55 459.42L291.69 459.6L291.83 459.77L291.98 459.93L292.14 460.1L292.3 460.26L292.46 460.42L292.63 460.58L292.81 460.74L292.99 460.89L293.18 461.04L293.37 461.19L293.57 461.33L293.76 461.47L293.96 461.61L294.17 461.74L294.37 461.87L294.58 462L294.78 462.12L294.99 462.24L295.2 462.35L295.41 462.46L295.63 462.57L295.84 462.67L296.06 462.77L296.28 462.86L296.49 462.95L296.72 463.04L296.94 463.12L297.16 463.2L297.39 463.27L297.62 463.34L297.85 463.41L298.08 463.47L298.31 463.53L298.54 463.58L298.78 463.63L299.02 463.68L299.25 463.72L299.49 463.76L299.74 463.79L299.98 463.82L300.22 463.85L300.47 463.87L300.72 463.89L300.97 463.9L301.22 463.91L301.47 463.92L301.72 463.92L302.13 463.91L302.52 463.9L302.92 463.89L303.3 463.86L303.68 463.83L304.06 463.79L304.43 463.74L304.79 463.69L305.15 463.63L305.51 463.56L305.85 463.49L306.2 463.41L306.54 463.32L306.87 463.22L307.19 463.12L307.52 463.01L307.83 462.89L308.14 462.77L308.45 462.64L308.75 462.5L309.04 462.36L309.33 462.2L309.61 462.04L309.89 461.88L310.16 461.7L310.43 461.52L310.69 461.34L310.95 461.14L311.2 460.94L311.44 460.73L311.68 460.51L311.92 460.29L312.15 460.06L312.37 459.82L312.59 459.58L312.8 459.33L317.47 464.43L317.12 464.78L316.77 465.13L316.4 465.47L316.03 465.79L315.66 466.11L315.28 466.41L314.89 466.71L314.5 466.99L314.1 467.27L313.7 467.53L313.29 467.79L312.87 468.03L312.45 468.27L312.02 468.49L311.59 468.71L311.15 468.91L310.71 469.11L310.26 469.3L309.8 469.47L309.34 469.64L308.87 469.79L308.39 469.94L307.91 470.07L307.43 470.2L306.94 470.31L306.44 470.42L305.94 470.51L305.43 470.6L304.91 470.67L304.39 470.74L303.87 470.79L303.33 470.84L302.79 470.87L302.25 470.9L301.7 470.91L301.14 470.92L300.69 470.91L300.25 470.9L299.8 470.88L299.36 470.85L298.92 470.81L298.49 470.77L298.06 470.71L297.64 470.65L297.22 470.58L296.8 470.5L296.38 470.41L295.97 470.31L295.57 470.21L295.17 470.1L294.77 469.97L294.37 469.84L293.98 469.71L293.59 469.56L293.21 469.4L292.83 469.24L292.45 469.07L292.08 468.89L291.71 468.7L291.35 468.5L290.98 468.3L290.63 468.08L290.27 467.86L289.92 467.63L289.58 467.39L289.24 467.15L288.9 466.89L288.56 466.63L288.23 466.35L287.9 466.07L287.58 465.78L287.26 465.49L286.95 465.18L286.64 464.87L286.34 464.56L286.06 464.23L285.78 463.91L285.51 463.57L285.25 463.23L285 462.89L284.75 462.54L284.52 462.18L284.29 461.82L284.08 461.45L283.87 461.08L283.67 460.7L283.48 460.32L283.3 459.93L283.13 459.53L282.96 459.13L282.81 458.72L282.66 458.31L282.53 457.89L282.4 457.46L282.28 457.03L282.17 456.59L282.07 456.15L281.97 455.7L281.89 455.25L281.81 454.79L281.75 454.32L281.69 453.85L281.64 453.38L281.6 452.89L281.57 452.41L281.55 451.91L281.54 451.41L281.53 450.91L281.54 450.4L281.55 449.9L281.57 449.41L281.6 448.92L281.64 448.44L281.69 447.96L281.75 447.49L281.82 447.03L281.9 446.57L281.98 446.12L282.08 445.67L282.18 445.23L282.29 444.79L282.41 444.36L282.54 443.94L282.68 443.52L282.83 443.11L282.99 442.7L283.16 442.3L283.33 441.9L283.52 441.51L283.71 441.13L283.91 440.75L284.13 440.38L284.35 440.01L284.58 439.65L284.82 439.3L285.06 438.95L285.32 438.61L285.59 438.27L285.86 437.94L286.15 437.61L286.44 437.29L286.74 436.98L287.05 436.67L287.37 436.37L287.7 436.07L288.03 435.78L288.36 435.51L288.69 435.23L289.03 434.97L289.37 434.72L289.72 434.47L290.07 434.24L290.42 434.01L290.77 433.79L291.13 433.57L291.49 433.37L291.85 433.17L292.22 432.99L292.59 432.81L292.96 432.64L293.34 432.48L293.72 432.32L294.1 432.18L294.49 432.04L294.88 431.91L295.27 431.79L295.67 431.68L296.07 431.57L296.47 431.48L296.88 431.39L297.29 431.31L297.7 431.24L298.11 431.18L298.53 431.12L298.95 431.08L299.38 431.04L299.81 431.01L300.24 430.99L300.67 430.98L301.11 430.97L301.55 430.98L301.98 430.99ZM299.73 438.06L298.95 438.17L298.19 438.33L297.44 438.53L296.71 438.78L295.99 439.07L295.29 439.41L294.6 439.8L293.93 440.23L293.27 440.7L292.65 441.21L292.09 441.76L291.59 442.34L291.15 442.94L290.77 443.59L290.44 444.26L290.17 444.96L289.97 445.7L289.82 446.47L289.73 447.27L289.7 448.1L311.93 448.1L311.9 447.23L311.83 446.4L311.7 445.6L311.52 444.84L311.3 444.13L311.02 443.44L310.69 442.8L310.31 442.19L309.88 441.62L309.4 441.09L308.87 440.59L308.3 440.14L307.71 439.72L307.09 439.36L306.46 439.03L305.79 438.75L305.11 438.51L304.4 438.31L303.67 438.16L302.91 438.05L302.13 437.99L301.33 437.97L300.52 437.99L299.73 438.06Z" id="a6ZWpG5UCx"></path><path d="M396.99 419.38L396.99 470.33L387.67 470.33L358.8 433.15L358.8 470.33L350.2 470.33L350.2 419.38L358.8 419.38L388.39 457.43L388.39 419.38L396.99 419.38Z" id="c2Qd6v7ooo"></path><path d="M429.2 431.01L429.88 431.05L430.55 431.12L431.21 431.2L431.85 431.31L432.49 431.43L433.12 431.56L433.74 431.72L434.35 431.9L434.96 432.09L435.55 432.31L436.13 432.54L436.71 432.79L437.27 433.06L437.83 433.34L438.37 433.65L438.91 433.97L439.44 434.32L439.95 434.68L440.46 435.06L440.96 435.46L441.45 435.87L441.93 436.31L442.4 436.76L442.86 437.23L443.3 437.71L443.72 438.19L444.12 438.68L444.5 439.18L444.86 439.69L445.21 440.21L445.54 440.74L445.84 441.27L446.13 441.81L446.4 442.36L446.66 442.92L446.89 443.49L447.1 444.07L447.3 444.65L447.48 445.24L447.64 445.84L447.78 446.45L447.9 447.07L448 447.69L448.08 448.33L448.15 448.97L448.19 449.62L448.22 450.28L448.23 450.94L448.22 451.61L448.19 452.27L448.15 452.92L448.08 453.56L448 454.19L447.9 454.82L447.78 455.43L447.64 456.04L447.48 456.64L447.3 457.23L447.1 457.82L446.89 458.39L446.66 458.96L446.4 459.52L446.13 460.07L445.84 460.61L445.54 461.15L445.21 461.67L444.86 462.19L444.5 462.7L444.12 463.2L443.72 463.69L443.3 464.18L442.86 464.65L442.4 465.12L441.93 465.58L441.45 466.01L440.96 466.43L440.46 466.83L439.95 467.21L439.44 467.57L438.91 467.91L438.37 468.24L437.83 468.54L437.27 468.83L436.71 469.1L436.13 469.35L435.55 469.58L434.96 469.8L434.35 469.99L433.74 470.17L433.12 470.32L432.49 470.46L431.85 470.58L431.21 470.69L430.55 470.77L429.88 470.83L429.2 470.88L428.52 470.91L427.82 470.92L427.13 470.91L426.44 470.88L425.77 470.83L425.1 470.77L424.44 470.69L423.79 470.58L423.15 470.46L422.52 470.32L421.9 470.17L421.29 469.99L420.69 469.8L420.1 469.58L419.51 469.35L418.94 469.1L418.38 468.83L417.82 468.54L417.27 468.24L416.74 467.91L416.21 467.57L415.69 467.21L415.18 466.83L414.69 466.43L414.2 466.01L413.72 465.58L413.24 465.12L412.79 464.65L412.35 464.18L411.93 463.69L411.53 463.2L411.15 462.7L410.78 462.19L410.44 461.67L410.11 461.15L409.8 460.61L409.51 460.07L409.24 459.52L408.99 458.96L408.76 458.39L408.54 457.82L408.35 457.24L408.17 456.64L408.01 456.04L407.87 455.44L407.75 454.82L407.65 454.19L407.56 453.56L407.5 452.92L407.45 452.27L407.42 451.61L407.41 450.94L407.42 450.28L407.45 449.62L407.5 448.97L407.56 448.33L407.65 447.69L407.75 447.07L407.87 446.45L408.01 445.84L408.17 445.24L408.35 444.65L408.54 444.07L408.76 443.49L408.99 442.92L409.24 442.36L409.51 441.81L409.8 441.27L410.11 440.74L410.44 440.21L410.78 439.69L411.15 439.18L411.53 438.68L411.93 438.19L412.35 437.71L412.79 437.23L413.24 436.76L413.72 436.31L414.2 435.87L414.69 435.46L415.18 435.06L415.69 434.68L416.21 434.32L416.74 433.97L417.27 433.65L417.82 433.34L418.38 433.06L418.94 432.79L419.51 432.54L420.1 432.31L420.69 432.09L421.29 431.9L421.9 431.72L422.52 431.56L423.15 431.43L423.79 431.31L424.44 431.2L425.1 431.12L425.77 431.05L426.44 431.01L427.13 430.98L427.82 430.97L428.52 430.98L429.2 431.01ZM426.44 438.32L425.77 438.4L425.12 438.51L424.48 438.65L423.86 438.82L423.26 439.03L422.68 439.27L422.11 439.53L421.55 439.83L421.02 440.16L420.5 440.52L420 440.92L419.51 441.34L419.04 441.8L418.59 442.28L418.18 442.78L417.79 443.29L417.44 443.83L417.12 444.38L416.82 444.96L416.56 445.55L416.33 446.16L416.13 446.79L415.96 447.43L415.82 448.1L415.71 448.78L415.64 449.48L415.59 450.2L415.57 450.94L415.59 451.68L415.64 452.4L415.71 453.11L415.82 453.79L415.96 454.45L416.13 455.1L416.33 455.73L416.56 456.34L416.82 456.93L417.12 457.5L417.44 458.06L417.79 458.59L418.18 459.11L418.59 459.61L419.04 460.09L419.51 460.55L420 460.97L420.5 461.37L421.02 461.73L421.55 462.06L422.11 462.35L422.68 462.62L423.26 462.86L423.86 463.06L424.48 463.23L425.12 463.38L425.77 463.49L426.44 463.56L427.12 463.61L427.82 463.63L428.52 463.61L429.21 463.56L429.88 463.49L430.53 463.38L431.16 463.23L431.78 463.06L432.38 462.86L432.97 462.62L433.54 462.35L434.09 462.06L434.63 461.73L435.15 461.37L435.65 460.97L436.14 460.55L436.61 460.09L437.05 459.61L437.47 459.11L437.85 458.59L438.21 458.06L438.53 457.5L438.82 456.93L439.09 456.34L439.32 455.73L439.52 455.1L439.69 454.45L439.83 453.79L439.93 453.11L440.01 452.4L440.06 451.68L440.07 450.94L440.06 450.2L440.01 449.48L439.93 448.78L439.83 448.1L439.69 447.43L439.52 446.79L439.32 446.16L439.09 445.55L438.82 444.96L438.53 444.38L438.21 443.83L437.85 443.29L437.47 442.78L437.05 442.28L436.61 441.8L436.14 441.34L435.65 440.92L435.15 440.52L434.63 440.16L434.09 439.83L433.54 439.53L432.97 439.27L432.38 439.03L431.78 438.82L431.16 438.65L430.53 438.51L429.88 438.4L429.21 438.32L428.52 438.27L427.82 438.26L427.12 438.27L426.44 438.32Z" id="eBVyS5a8s"></path><path d="M466.97 457.79C466.97 459.64 467.45 461.11 468.42 462.21C469.4 463.3 470.75 463.84 472.5 463.84C474.25 463.84 475.94 463 477.54 461.29C477.87 461.87 480.56 466.48 480.89 467.05C478.02 469.63 474.85 470.92 471.38 470.92C467.9 470.92 464.94 469.71 462.48 467.31C460.03 464.9 458.8 461.66 458.8 457.58C458.8 456.28 458.8 449.79 458.8 438.12L453.93 438.12L453.93 431.55L458.8 431.55L458.8 419.38L466.97 419.38L466.97 431.55L477.17 431.55L477.17 438.12L466.97 438.12C466.97 449.92 466.97 456.48 466.97 457.79Z" id="dbxVTB0VG"></path><path d="M218.85 528.86L241.45 528.86L241.45 536.8L218.85 536.8L218.85 557.8L210.25 557.8L210.25 506.85L244.21 506.85L244.15 514.87L218.85 514.87L218.85 528.86Z" id="b8qfHL3t8"></path><path d="M271.25 518.48L271.93 518.52L272.6 518.59L273.25 518.67L273.9 518.77L274.54 518.89L275.17 519.03L275.79 519.19L276.4 519.37L277.01 519.56L277.6 519.77L278.18 520.01L278.76 520.26L279.32 520.53L279.88 520.81L280.42 521.12L280.96 521.44L281.49 521.79L282 522.15L282.51 522.53L283.01 522.92L283.5 523.34L283.98 523.78L284.45 524.23L284.91 524.7L285.35 525.17L285.77 525.66L286.17 526.15L286.55 526.65L286.91 527.16L287.26 527.68L287.59 528.21L287.89 528.74L288.18 529.28L288.45 529.83L288.71 530.39L288.94 530.96L289.15 531.53L289.35 532.12L289.53 532.71L289.68 533.31L289.82 533.92L289.95 534.54L290.05 535.16L290.13 535.8L290.2 536.44L290.24 537.09L290.27 537.75L290.28 538.41L290.27 539.08L290.24 539.74L290.2 540.39L290.13 541.03L290.05 541.66L289.95 542.29L289.82 542.9L289.68 543.51L289.53 544.11L289.35 544.7L289.15 545.29L288.94 545.86L288.71 546.43L288.45 546.99L288.18 547.54L287.89 548.08L287.59 548.62L287.26 549.14L286.91 549.66L286.55 550.17L286.17 550.67L285.77 551.16L285.35 551.65L284.91 552.12L284.45 552.59L283.98 553.05L283.5 553.48L283.01 553.9L282.51 554.3L282 554.68L281.49 555.04L280.96 555.38L280.42 555.71L279.88 556.01L279.32 556.3L278.76 556.57L278.18 556.82L277.6 557.05L277.01 557.26L276.4 557.46L275.79 557.64L275.17 557.79L274.54 557.93L273.9 558.05L273.25 558.15L272.6 558.24L271.93 558.3L271.25 558.35L270.57 558.38L269.87 558.39L269.18 558.38L268.49 558.35L267.82 558.3L267.15 558.24L266.49 558.15L265.84 558.05L265.2 557.93L264.57 557.79L263.95 557.64L263.34 557.46L262.74 557.26L262.15 557.05L261.56 556.82L260.99 556.57L260.43 556.3L259.87 556.01L259.32 555.71L258.79 555.38L258.26 555.04L257.74 554.68L257.23 554.3L256.73 553.9L256.25 553.48L255.76 553.05L255.29 552.59L254.84 552.12L254.4 551.65L253.98 551.16L253.58 550.67L253.2 550.17L252.83 549.66L252.49 549.14L252.16 548.62L251.85 548.08L251.56 547.54L251.29 546.99L251.04 546.43L250.81 545.86L250.59 545.29L250.4 544.7L250.22 544.11L250.06 543.51L249.92 542.9L249.8 542.29L249.7 541.66L249.61 541.03L249.55 540.39L249.5 539.74L249.47 539.08L249.46 538.41L249.47 537.75L249.5 537.09L249.55 536.44L249.61 535.8L249.7 535.16L249.8 534.54L249.92 533.92L250.06 533.31L250.22 532.71L250.4 532.12L250.59 531.53L250.81 530.96L251.04 530.39L251.29 529.83L251.56 529.28L251.85 528.74L252.16 528.21L252.49 527.68L252.83 527.16L253.2 526.65L253.58 526.15L253.98 525.66L254.4 525.17L254.84 524.7L255.29 524.23L255.76 523.78L256.25 523.34L256.73 522.92L257.23 522.53L257.74 522.15L258.26 521.79L258.79 521.44L259.32 521.12L259.87 520.81L260.43 520.53L260.99 520.26L261.56 520.01L262.15 519.77L262.74 519.56L263.34 519.37L263.95 519.19L264.57 519.03L265.2 518.89L265.84 518.77L266.49 518.67L267.15 518.59L267.82 518.52L268.49 518.48L269.18 518.45L269.87 518.44L270.57 518.45L271.25 518.48ZM268.49 525.79L267.82 525.87L267.17 525.98L266.53 526.12L265.91 526.29L265.31 526.5L264.73 526.73L264.16 527L263.6 527.3L263.07 527.63L262.55 527.99L262.04 528.38L261.56 528.81L261.09 529.27L260.64 529.75L260.23 530.24L259.84 530.76L259.49 531.3L259.17 531.85L258.87 532.42L258.61 533.02L258.38 533.63L258.18 534.25L258.01 534.9L257.87 535.57L257.76 536.25L257.68 536.95L257.64 537.67L257.62 538.41L257.64 539.15L257.68 539.87L257.76 540.57L257.87 541.26L258.01 541.92L258.18 542.57L258.38 543.2L258.61 543.81L258.87 544.4L259.17 544.97L259.49 545.53L259.84 546.06L260.23 546.58L260.64 547.08L261.09 547.56L261.56 548.02L262.04 548.44L262.55 548.83L263.07 549.19L263.6 549.52L264.16 549.82L264.73 550.09L265.31 550.33L265.91 550.53L266.53 550.7L267.17 550.84L267.82 550.95L268.49 551.03L269.17 551.08L269.87 551.1L270.57 551.08L271.26 551.03L271.93 550.95L272.58 550.84L273.21 550.7L273.83 550.53L274.43 550.33L275.02 550.09L275.59 549.82L276.14 549.52L276.68 549.19L277.2 548.83L277.7 548.44L278.19 548.02L278.66 547.56L279.1 547.08L279.52 546.58L279.9 546.06L280.26 545.53L280.58 544.97L280.87 544.4L281.14 543.81L281.37 543.2L281.57 542.57L281.74 541.92L281.88 541.26L281.98 540.57L282.06 539.87L282.11 539.15L282.12 538.41L282.11 537.67L282.06 536.95L281.98 536.25L281.88 535.57L281.74 534.9L281.57 534.25L281.37 533.63L281.14 533.02L280.87 532.42L280.58 531.85L280.26 531.3L279.9 530.76L279.52 530.24L279.1 529.75L278.66 529.27L278.19 528.81L277.7 528.38L277.2 527.99L276.68 527.63L276.14 527.3L275.59 527L275.02 526.73L274.43 526.5L273.83 526.29L273.21 526.12L272.58 525.98L271.93 525.87L271.26 525.79L270.57 525.74L269.87 525.73L269.17 525.74L268.49 525.79Z" id="c289282HDJ"></path><path d="M326.66 519.02L334.81 519.02L334.81 557.8L326.66 557.8C326.66 553.56 326.66 551.2 326.66 550.73C325.34 553.11 323.53 554.98 321.22 556.34C318.92 557.7 316.42 558.39 313.75 558.39C309.37 558.39 305.84 557.05 303.14 554.37C300.45 551.7 299.1 547.84 299.1 542.78C299.1 541.2 299.1 533.28 299.1 519.02L307.26 519.02C307.26 531.79 307.26 538.89 307.26 540.31C307.26 547.45 310.22 551.02 316.16 551.02C318.97 551.02 321.43 550.09 323.52 548.22C325.61 546.35 326.66 543.61 326.66 540.02C326.66 537.22 326.66 530.22 326.66 519.02Z" id="cggKjGvKX"></path><path d="M354.79 557.8L346.63 557.8L346.63 519.02L354.79 519.02C354.79 523.26 354.79 525.62 354.79 526.09C356.1 523.71 357.92 521.84 360.22 520.48C362.53 519.11 365.02 518.44 367.69 518.44C372.06 518.44 375.6 519.77 378.3 522.44C381 525.12 382.35 528.98 382.35 534.04C382.35 535.62 382.35 543.54 382.35 557.8L374.18 557.8C374.18 545.03 374.18 537.93 374.18 536.51C374.18 529.37 371.21 525.8 365.29 525.8C362.47 525.8 360.02 526.74 357.93 528.6C355.84 530.47 354.79 533.21 354.79 536.8C354.79 539.6 354.79 546.6 354.79 557.8Z" id="b4EFr5sec"></path><path d="M422.71 557.8L422.71 551.97L422.46 552.31L422.21 552.64L421.95 552.97L421.68 553.28L421.41 553.58L421.14 553.88L420.85 554.16L420.56 554.44L420.27 554.71L419.96 554.97L419.66 555.21L419.34 555.45L419.02 555.68L418.7 555.9L418.36 556.11L418.03 556.31L417.68 556.51L417.33 556.69L416.97 556.86L416.61 557.03L416.24 557.18L415.87 557.33L415.49 557.46L415.1 557.59L414.71 557.71L414.31 557.81L413.9 557.91L413.49 558L413.07 558.08L412.65 558.15L412.22 558.21L411.79 558.26L411.34 558.31L410.9 558.34L410.44 558.36L409.98 558.38L409.52 558.38L409.12 558.38L408.73 558.37L408.34 558.35L407.95 558.32L407.56 558.28L407.18 558.24L406.8 558.18L406.42 558.12L406.05 558.06L405.68 557.98L405.31 557.89L404.94 557.8L404.58 557.7L404.22 557.59L403.86 557.47L403.51 557.35L403.15 557.21L402.8 557.07L402.46 556.92L402.11 556.77L401.77 556.6L401.44 556.43L401.1 556.24L400.77 556.05L400.44 555.86L400.11 555.65L399.79 555.43L399.47 555.21L399.15 554.98L398.83 554.74L398.52 554.5L398.21 554.24L397.9 553.98L397.6 553.71L397.29 553.43L397 553.14L396.7 552.85L396.41 552.54L396.12 552.24L395.85 551.92L395.58 551.61L395.32 551.28L395.07 550.96L394.82 550.62L394.59 550.29L394.36 549.94L394.14 549.6L393.93 549.24L393.72 548.88L393.53 548.52L393.34 548.15L393.16 547.78L392.99 547.4L392.82 547.02L392.67 546.63L392.52 546.23L392.38 545.83L392.25 545.43L392.12 545.02L392.01 544.61L391.9 544.19L391.8 543.76L391.71 543.33L391.62 542.9L391.55 542.46L391.48 542.01L391.42 541.56L391.37 541.11L391.32 540.64L391.29 540.18L391.26 539.71L391.24 539.23L391.23 538.75L391.22 538.27L391.23 537.78L391.24 537.3L391.26 536.82L391.29 536.35L391.32 535.89L391.37 535.43L391.42 534.98L391.48 534.53L391.55 534.09L391.63 533.65L391.72 533.21L391.81 532.79L391.92 532.37L392.03 531.95L392.15 531.54L392.27 531.13L392.41 530.73L392.55 530.34L392.7 529.95L392.86 529.56L393.03 529.18L393.21 528.81L393.39 528.44L393.59 528.07L393.79 527.72L394 527.36L394.21 527.02L394.44 526.67L394.67 526.34L394.91 526.01L395.16 525.68L395.42 525.36L395.69 525.04L395.96 524.73L396.25 524.43L396.54 524.13L396.84 523.83L397.14 523.55L397.45 523.27L397.76 522.99L398.08 522.73L398.39 522.47L398.72 522.22L399.04 521.98L399.37 521.75L399.7 521.53L400.03 521.31L400.37 521.1L400.71 520.9L401.05 520.71L401.4 520.52L401.74 520.35L402.1 520.18L402.45 520.01L402.81 519.86L403.17 519.72L403.54 519.58L403.9 519.45L404.27 519.33L404.65 519.21L405.03 519.1L405.41 519.01L405.79 518.92L406.17 518.83L406.56 518.76L406.96 518.69L407.35 518.63L407.75 518.58L408.15 518.54L408.56 518.5L408.97 518.48L409.38 518.46L409.79 518.44L410.21 518.44L410.63 518.44L411.04 518.46L411.45 518.48L411.85 518.52L412.25 518.56L412.65 518.61L413.04 518.67L413.43 518.75L413.81 518.83L414.19 518.92L414.56 519.02L414.93 519.13L415.29 519.25L415.65 519.38L416.01 519.52L416.36 519.66L416.71 519.82L417.05 519.99L417.39 520.17L417.72 520.35L418.05 520.55L418.37 520.76L418.69 520.97L419.01 521.2L419.32 521.43L419.63 521.68L419.93 521.93L420.23 522.19L420.52 522.47L420.81 522.75L421.09 523.04L421.37 523.34L421.65 523.65L421.92 523.98L422.19 524.31L422.45 524.65L422.71 525L422.71 503.71L430.88 503.71L430.88 557.8L422.71 557.8ZM409.99 525.65L409.37 525.73L408.76 525.85L408.17 526L407.59 526.18L407.02 526.39L406.46 526.64L405.91 526.92L405.38 527.23L404.86 527.58L404.35 527.96L403.85 528.37L403.36 528.82L402.89 529.3L402.44 529.8L402.02 530.32L401.63 530.86L401.28 531.41L400.95 531.98L400.65 532.57L400.39 533.17L400.16 533.79L399.95 534.43L399.78 535.08L399.64 535.75L399.53 536.44L399.45 537.14L399.41 537.86L399.39 538.59L399.41 539.33L399.46 540.04L399.54 540.74L399.65 541.42L399.79 542.08L399.96 542.72L400.17 543.35L400.41 543.95L400.68 544.54L400.98 545.11L401.31 545.66L401.68 546.19L402.07 546.7L402.5 547.19L402.96 547.67L403.44 548.12L403.94 548.54L404.44 548.93L404.96 549.29L405.48 549.61L406.02 549.91L406.57 550.17L407.13 550.41L407.7 550.61L408.28 550.78L408.87 550.92L409.47 551.03L410.09 551.11L410.71 551.15L411.35 551.17L411.98 551.15L412.6 551.11L413.21 551.03L413.81 550.92L414.39 550.78L414.96 550.6L415.51 550.4L416.06 550.16L416.59 549.89L417.11 549.6L417.61 549.27L418.1 548.9L418.58 548.51L419.05 548.09L419.51 547.63L419.94 547.15L420.34 546.65L420.71 546.14L421.06 545.6L421.37 545.05L421.65 544.48L421.91 543.9L422.13 543.29L422.32 542.67L422.49 542.03L422.62 541.37L422.72 540.69L422.8 540L422.84 539.28L422.86 538.55L422.84 537.82L422.8 537.11L422.72 536.41L422.62 535.73L422.49 535.06L422.32 534.41L422.13 533.78L421.91 533.16L421.65 532.56L421.37 531.98L421.06 531.41L420.71 530.86L420.34 530.32L419.94 529.8L419.51 529.3L419.05 528.82L418.58 528.37L418.1 527.96L417.61 527.58L417.1 527.23L416.58 526.92L416.04 526.64L415.49 526.39L414.93 526.18L414.35 526L413.76 525.85L413.16 525.73L412.54 525.65L411.91 525.6L411.27 525.58L410.62 525.6L409.99 525.65Z" id="f9l1HNVuf"></path></defs><g><g><g><use xlink:href="#b8uPXwj0" opacity="1" fill="#3a556a" fill-opacity="1"></use><g><use xlink:href="#b8uPXwj0" opacity="1" fill-opacity="0" stroke="#000000" stroke-width="1" stroke-opacity="0"></use></g></g><g><use xlink:href="#b15HtKLPxU" opacity="1" fill="#ebf0f3" fill-opacity="1"></use><g><use xlink:href="#b15HtKLPxU" opacity="1" fill-opacity="0" stroke="#000000" stroke-width="1" stroke-opacity="0"></use></g></g><g><use xlink:href="#a1fnbnTRW4" opacity="1" fill="#fcd462" fill-opacity="1"></use><g><use xlink:href="#a1fnbnTRW4" opacity="1" fill-opacity="0" stroke="#000000" stroke-width="1" stroke-opacity="0"></use></g></g><g><use xlink:href="#a42usGT7JM" opacity="1" fill="#44c4a1" fill-opacity="1"></use><g><use xlink:href="#a42usGT7JM" opacity="1" fill-opacity="0" stroke="#000000" stroke-width="1" stroke-opacity="0"></use></g></g><g><use xlink:href="#blXwQ6ufi" opacity="1" fill="#e56353" fill-opacity="1"></use><g><use xlink:href="#blXwQ6ufi" opacity="1" fill-opacity="0" stroke="#000000" stroke-width="1" stroke-opacity="0"></use></g></g><g><use xlink:href="#by0bUEELd" opacity="1" fill="#f3f1f1" fill-opacity="1"></use><g><use xlink:href="#by0bUEELd" opacity="1" fill-opacity="0" stroke="#000000" stroke-width="1" stroke-opacity="0"></use></g></g><g><use xlink:href="#bKYinxPgI" opacity="1" fill="#64798a" fill-opacity="1"></use><g><use xlink:href="#bKYinxPgI" opacity="1" fill-opacity="0" stroke="#000000" stroke-width="1" stroke-opacity="0"></use></g></g><g><use xlink:href="#eESqbxNF9" opacity="1" fill="#64798a" fill-opacity="1"></use><g><use xlink:href="#eESqbxNF9" opacity="1" fill-opacity="0" stroke="#000000" stroke-width="1" stroke-opacity="0"></use></g></g><g><use xlink:href="#a3rhrGwZt" opacity="1" fill="#64798a" fill-opacity="1"></use><g><use xlink:href="#a3rhrGwZt" opacity="1" fill-opacity="0" stroke="#000000" stroke-width="1" stroke-opacity="0"></use></g></g><g><use xlink:href="#i6eFAut90" opacity="1" fill="#e56353" fill-opacity="1"></use><g><use xlink:href="#i6eFAut90" opacity="1" fill-opacity="0" stroke="#000000" stroke-width="1" stroke-opacity="0"></use></g></g><g><use xlink:href="#e1SXTgdAP" opacity="1" fill="#e56353" fill-opacity="1"></use><g><use xlink:href="#e1SXTgdAP" opacity="1" fill-opacity="0" stroke="#000000" stroke-width="1" stroke-opacity="0"></use></g></g><g><use xlink:href="#afltFCMC9" opacity="1" fill="#e56353" fill-opacity="1"></use><g><use xlink:href="#afltFCMC9" opacity="1" fill-opacity="0" stroke="#000000" stroke-width="1" stroke-opacity="0"></use></g></g><g><use xlink:href="#a6ZWpG5UCx" opacity="1" fill="#e56353" fill-opacity="1"></use><g><use xlink:href="#a6ZWpG5UCx" opacity="1" fill-opacity="0" stroke="#000000" stroke-width="1" stroke-opacity="0"></use></g></g><g><use xlink:href="#c2Qd6v7ooo" opacity="1" fill="#e56353" fill-opacity="1"></use><g><use xlink:href="#c2Qd6v7ooo" opacity="1" fill-opacity="0" stroke="#000000" stroke-width="1" stroke-opacity="0"></use></g></g><g><use xlink:href="#eBVyS5a8s" opacity="1" fill="#e56353" fill-opacity="1"></use><g><use xlink:href="#eBVyS5a8s" opacity="1" fill-opacity="0" stroke="#000000" stroke-width="1" stroke-opacity="0"></use></g></g><g><use xlink:href="#dbxVTB0VG" opacity="1" fill="#e56353" fill-opacity="1"></use><g><use xlink:href="#dbxVTB0VG" opacity="1" fill-opacity="0" stroke="#000000" stroke-width="1" stroke-opacity="0"></use></g></g><g><use xlink:href="#b8qfHL3t8" opacity="1" fill="#e56353" fill-opacity="1"></use><g><use xlink:href="#b8qfHL3t8" opacity="1" fill-opacity="0" stroke="#000000" stroke-width="1" stroke-opacity="0"></use></g></g><g><use xlink:href="#c289282HDJ" opacity="1" fill="#e56353" fill-opacity="1"></use><g><use xlink:href="#c289282HDJ" opacity="1" fill-opacity="0" stroke="#000000" stroke-width="1" stroke-opacity="0"></use></g></g><g><use xlink:href="#cggKjGvKX" opacity="1" fill="#e56353" fill-opacity="1"></use><g><use xlink:href="#cggKjGvKX" opacity="1" fill-opacity="0" stroke="#000000" stroke-width="1" stroke-opacity="0"></use></g></g><g><use xlink:href="#b4EFr5sec" opacity="1" fill="#e56353" fill-opacity="1"></use><g><use xlink:href="#b4EFr5sec" opacity="1" fill-opacity="0" stroke="#000000" stroke-width="1" stroke-opacity="0"></use></g></g><g><use xlink:href="#f9l1HNVuf" opacity="1" fill="#e56353" fill-opacity="1"></use><g><use xlink:href="#f9l1HNVuf" opacity="1" fill-opacity="0" stroke="#000000" stroke-width="1" stroke-opacity="0"></use></g></g></g></g></svg>