<?xml version="1.0" encoding="iso-8859-1"?>
<!-- Generator: Adobe Illustrator 19.0.0, SVG Export Plug-In . SVG Version: 6.00 Build 0)  -->
<svg version="1.1" id="Capa_1" xmlns="http://www.w3.org/2000/svg" xmlns:xlink="http://www.w3.org/1999/xlink" x="0px" y="0px"
	 viewBox="0 0 512 512" style="enable-background:new 0 0 512 512;" xml:space="preserve">
<path style="fill:#EA4F26;" d="M200.675,131.234c1.846,1.846,1.846,4.836,0,6.682L174.792,163.8v75.093h-25.78v-80.435
	c0-3.424,1.361-6.693,3.774-9.116l29.658-29.658c1.846-1.846,4.836-1.846,6.682,0L200.675,131.234z"/>
<path style="fill:#ED3124;" d="M162.417,166.738c0-3.424,1.361-6.693,3.774-9.116l29.658-29.658
	c0.269-0.269,0.567-0.487,0.878-0.678l-7.601-7.601c-1.846-1.846-4.836-1.846-6.682,0l-29.658,29.658
	c-2.413,2.423-3.774,5.692-3.774,9.116v80.435h13.406V166.738z"/>
<g>
	<circle style="fill:#FDDB87;" cx="20.109" cy="290.907" r="20.109"/>
	<circle style="fill:#FDDB87;" cx="50.798" cy="290.907" r="20.109"/>
	<circle style="fill:#FDDB87;" cx="39.702" cy="269.251" r="20.109"/>
	<circle style="fill:#FDDB87;" cx="68.803" cy="257.753" r="20.109"/>
	<circle style="fill:#FDDB87;" cx="83.529" cy="289.36" r="20.109"/>
</g>
<g>
	<path style="fill:#F7CF77;" d="M16.982,289.692c0-7.545,4.161-14.111,10.309-17.551c-2.233-0.855-4.648-1.344-7.181-1.344
		c-11.106,0-20.109,9.003-20.109,20.109c0,11.106,9.003,20.109,20.109,20.109c3.561,0,6.899-0.934,9.8-2.557
		C22.355,305.564,16.982,298.265,16.982,289.692z"/>
	<path style="fill:#F7CF77;" d="M47.673,289.692c0-7.545,4.161-14.111,10.309-17.551c-2.233-0.855-4.648-1.344-7.181-1.344
		c-11.106,0-20.109,9.003-20.109,20.109c0,11.106,9.003,20.109,20.109,20.109c3.561,0,6.899-0.934,9.8-2.557
		C53.046,305.564,47.673,298.265,47.673,289.692z"/>
	<path style="fill:#F7CF77;" d="M36.575,268.037c0-7.545,4.161-14.111,10.309-17.551c-2.233-0.855-4.648-1.344-7.181-1.344
		c-11.106,0-20.109,9.003-20.109,20.109c0,11.106,9.003,20.109,20.109,20.109c3.561,0,6.899-0.934,9.8-2.557
		C41.948,283.908,36.575,276.609,36.575,268.037z"/>
	<path style="fill:#F7CF77;" d="M65.673,256.535c0-7.545,4.161-14.111,10.309-17.551c-2.233-0.855-4.648-1.344-7.181-1.344
		c-11.106,0-20.109,9.003-20.109,20.109c0,11.106,9.003,20.109,20.109,20.109c3.561,0,6.899-0.934,9.8-2.557
		C71.047,272.406,65.673,265.107,65.673,256.535z"/>
	<path style="fill:#F7CF77;" d="M80.402,288.145c0-7.545,4.161-14.111,10.309-17.551c-2.233-0.855-4.648-1.344-7.181-1.344
		c-11.106,0-20.109,9.003-20.109,20.109c0,11.106,9.003,20.109,20.109,20.109c3.561,0,6.899-0.934,9.8-2.557
		C85.775,304.017,80.402,296.718,80.402,288.145z"/>
</g>
<path style="fill:#898989;" d="M326.381,201.254h-43.311v241.305h43.311c66.62,0,120.653-54.033,120.653-120.653
	S393,201.254,326.381,201.254z"/>
<path style="fill:#666666;" d="M512,375.159v58.491c0,4.919-3.991,8.91-8.91,8.91H283.069v-76.31h112.238H503.09
	C508.009,366.249,512,370.24,512,375.159z"/>
<path style="fill:#5B5E5E;" d="M395.307,366.249H283.069v76.31h77.35c27.548-17.701,48.632-44.58,58.953-76.31H395.307z"/>
<path style="fill:#00AA95;" d="M283.069,201.254c66.62,0,120.653,54.033,120.653,120.653s-54.033,120.653-120.653,120.653
	s-120.653-54.033-120.653-120.653S216.45,201.254,283.069,201.254z"/>
<path style="fill:#00A8A8;" d="M273.653,316.66c0-44.509,24.122-83.395,59.999-104.308c-15.386-7.118-32.52-11.098-50.583-11.098
	c-66.62,0-120.653,54.033-120.653,120.653s54.033,120.653,120.653,120.653c22.11,0,42.831-5.957,60.653-16.345
	C302.362,407.079,273.653,365.216,273.653,316.66z"/>
<path style="fill:#00A595;" d="M245.43,273.181l-4.599-25.162c-0.33-1.856-1.949-3.197-3.826-3.197h-46.742
	c-17.385,20.907-27.846,47.775-27.846,77.084c0,48.946,29.167,91.097,71.063,110.018L245.43,273.181z"/>
<path style="fill:#FFFFFF;" d="M283.069,283.751c21.068,0,38.155,17.087,38.155,38.155c0,21.068-17.087,38.155-38.155,38.155
	s-38.155-17.087-38.155-38.155C244.914,300.839,262.002,283.751,283.069,283.751z"/>
<path style="fill:#BFC1C1;" d="M283.069,283.751c-10.083,0-19.248,3.921-26.07,10.311c2.973-0.744,6.081-1.144,9.284-1.144
	c21.068,0,38.155,17.087,38.155,38.155c0,10.985-4.652,20.881-12.085,27.844c16.582-4.149,28.872-19.147,28.872-37.011
	C321.225,300.839,304.137,283.751,283.069,283.751z"/>
<g>
	<circle style="fill:#666666;" cx="283.069" cy="239.408" r="18.562"/>
	<circle style="fill:#666666;" cx="365.567" cy="321.905" r="18.562"/>
	<circle style="fill:#666666;" cx="283.069" cy="404.403" r="18.562"/>
</g>
<g>
	<path style="fill:#595B5B;" d="M283.069,220.847c-6.185,0-11.649,3.038-15.022,7.69c1.957-0.702,4.058-1.104,6.256-1.104
		c10.25,0,18.562,8.312,18.562,18.562c0,4.065-1.323,7.814-3.54,10.872c7.168-2.571,12.306-9.406,12.306-17.458
		C301.631,229.159,293.32,220.847,283.069,220.847z"/>
	<path style="fill:#595B5B;" d="M365.567,303.345c-6.185,0-11.649,3.038-15.022,7.69c1.957-0.702,4.058-1.104,6.256-1.104
		c10.25,0,18.562,8.312,18.562,18.562c0,4.065-1.323,7.814-3.54,10.872c7.168-2.571,12.306-9.406,12.306-17.457
		C384.129,311.656,375.817,303.345,365.567,303.345z"/>
	<path style="fill:#595B5B;" d="M283.069,385.842c-6.185,0-11.649,3.038-15.022,7.69c1.957-0.702,4.058-1.104,6.256-1.104
		c10.25,0,18.562,8.312,18.562,18.562c0,4.065-1.323,7.814-3.54,10.872c7.168-2.571,12.306-9.406,12.306-17.457
		C301.631,394.154,293.32,385.842,283.069,385.842z"/>
</g>
<path style="fill:#DDDDDD;" d="M128.614,300.766l1.836,141.793H26.719c-3.207,0-5.94-2.341-6.424-5.517L0.732,308.934
	c-0.66-4.29,2.671-8.167,7.023-8.167h99.028L128.614,300.766L128.614,300.766z"/>
<path style="fill:#CECCC6;" d="M66.288,402.084c-3.207,0-5.94-2.341-6.424-5.517l-14.629-95.8H7.755
	c-4.352,0-7.683,3.877-7.023,8.167l19.562,128.108c0.485,3.176,3.217,5.517,6.424,5.517h103.73l-0.524-40.475L66.288,402.084
	L66.288,402.084z"/>
<path style="fill:#E8B62A;" d="M226.352,259.002l-12.818,170.275c-0.547,7.487-6.775,13.282-14.282,13.282h-68.514
	c-7.507,0-13.736-5.795-14.282-13.282l-12.818-170.275L226.352,259.002L226.352,259.002z"/>
<path style="fill:#E59E2C;" d="M167.683,429.277l-12.818-170.275h-51.228l12.818,170.275c0.547,7.487,6.775,13.282,14.282,13.282
	h51.228C174.458,442.559,168.23,436.764,167.683,429.277z"/>
<polygon style="fill:#DDDDDD;" points="217.503,376.561 221.617,321.906 108.373,321.906 112.487,376.561 "/>
<polygon style="fill:#E5BC80;" points="159.602,321.906 108.373,321.906 112.487,376.561 163.715,376.561 "/>
<g>
	<polygon style="fill:#ED3124;" points="32.298,300.766 53.809,442.559 88.448,442.559 73.495,300.766 	"/>
	<path style="fill:#ED3124;" d="M66.288,402.084c-3.207,0-5.94-2.341-6.424-5.517l-14.629-95.8H32.298l21.511,141.793h34.639
		l-4.268-40.475H66.288z"/>
</g>
<path style="fill:#DDDDDD;" d="M221.753,233.84l4.599,25.162H103.637l4.599-25.162c0.33-1.856,1.949-3.197,3.826-3.197h105.865
	C219.804,230.644,221.423,231.984,221.753,233.84z"/>
<path style="fill:#CECCC6;" d="M163.29,230.644h-51.228c-1.877,0-3.496,1.341-3.826,3.197l-4.599,25.162h51.228l4.599-25.162
	C159.796,231.984,161.415,230.644,163.29,230.644z"/>
<g>
	<path style="fill:#E8B62A;" d="M510.03,284.349c2.382,1.299,2.382,4.723,0,6.022l-8.899,4.867c-0.577,0.32-1.042,0.784-1.361,1.361
		l-4.867,8.899c-1.299,2.382-4.723,2.382-6.022,0l-4.867-8.899c-0.32-0.577-0.784-1.042-1.361-1.361l-8.899-4.867
		c-2.382-1.299-2.382-4.723,0-6.022l8.899-4.867c0.577-0.32,1.042-0.784,1.361-1.361l4.867-8.899c1.299-2.382,4.723-2.382,6.022,0
		l4.867,8.899c0.32,0.577,0.784,1.042,1.361,1.361L510.03,284.349z"/>
	<path style="fill:#E8B62A;" d="M254.288,86.356c2.382,1.299,2.382,4.723,0,6.022l-8.899,4.867c-0.577,0.32-1.042,0.784-1.361,1.361
		l-4.867,8.899c-1.299,2.382-4.723,2.382-6.022,0l-4.867-8.899c-0.32-0.577-0.784-1.042-1.361-1.361l-8.899-4.867
		c-2.382-1.299-2.382-4.723,0-6.022l8.899-4.867c0.577-0.32,1.042-0.784,1.361-1.361l4.867-8.899c1.299-2.382,4.723-2.382,6.022,0
		l4.867,8.899c0.32,0.577,0.784,1.042,1.361,1.361L254.288,86.356z"/>
	<path style="fill:#E8B62A;" d="M52.169,165.759c2.382,1.299,2.382,4.723,0,6.022l-8.899,4.867c-0.577,0.32-1.042,0.784-1.361,1.361
		l-4.867,8.899c-1.299,2.382-4.723,2.382-6.022,0l-4.867-8.899c-0.32-0.577-0.784-1.042-1.361-1.361l-8.899-4.867
		c-2.382-1.299-2.382-4.723,0-6.022l8.899-4.867c0.577-0.32,1.042-0.784,1.361-1.361l4.867-8.899c1.299-2.382,4.723-2.382,6.022,0
		l4.867,8.899c0.32,0.577,0.784,1.042,1.361,1.361L52.169,165.759z"/>
	<path style="fill:#E8B62A;" d="M431.531,180.111l-27.139,10.464c-2.781,1.072-5.556-1.574-4.618-4.403l9.163-27.606
		c0.739-2.228,3.394-3.104,5.346-1.799c7.305,4.882,13.569,10.855,18.791,17.921C434.47,176.574,433.721,179.266,431.531,180.111z"
		/>
</g>
<path style="fill:#ED3124;" d="M374.021,144.969l-10.567,27.104c-1.083,2.777-4.908,3.043-6.365,0.443l-14.222-25.38
	c-1.148-2.048-0.005-4.599,2.274-5.162c8.531-2.107,17.17-2.705,25.911-1.802C373.389,140.413,374.874,142.781,374.021,144.969z"/>
<g>
</g>
<g>
</g>
<g>
</g>
<g>
</g>
<g>
</g>
<g>
</g>
<g>
</g>
<g>
</g>
<g>
</g>
<g>
</g>
<g>
</g>
<g>
</g>
<g>
</g>
<g>
</g>
<g>
</g>
</svg>
