<?xml version="1.0" standalone="no"?>
<!DOCTYPE svg PUBLIC "-//W3C//DTD SVG 20010904//EN"
 "http://www.w3.org/TR/2001/REC-SVG-20010904/DTD/svg10.dtd">
<svg version="1.0" xmlns="http://www.w3.org/2000/svg"
 width="512.000000pt" height="512.000000pt" viewBox="0 0 512.000000 512.000000"
 preserveAspectRatio="xMidYMid meet">
<metadata>
Created by potrace 1.11, written by Peter Selinger 2001-2013
</metadata>
<g transform="translate(0.000000,512.000000) scale(0.100000,-0.100000)"
fill="#000000" stroke="none">
<path d="M2992 4617 c-27 -29 -28 -76 -3 -109 11 -14 56 -49 100 -78 71 -46
85 -51 116 -46 41 8 65 38 65 82 0 40 -17 60 -109 123 -86 59 -132 67 -169 28z"/>
<path d="M3421 4314 c-23 -29 -27 -64 -11 -94 11 -21 272 -205 327 -231 43
-20 78 -14 103 19 22 27 26 63 10 92 -8 16 -103 85 -294 214 -53 36 -107 36
-135 0z"/>
<path d="M3005 3968 l-78 -113 -38 -159 c-21 -87 -39 -160 -41 -161 -2 -2 -39
5 -83 15 -107 26 -131 25 -160 -5 -31 -30 -32 -73 -5 -108 16 -20 40 -30 115
-48 52 -12 95 -23 95 -24 0 -1 -29 -127 -65 -280 -36 -153 -64 -279 -63 -280
4 -3 245 -75 250 -75 2 0 51 70 109 155 57 85 107 155 111 155 4 0 8 -83 10
-184 2 -101 6 -187 10 -191 3 -4 80 -29 170 -56 90 -28 170 -53 178 -55 17 -7
-12 -19 -213 -89 l-139 -48 7 -190 c5 -131 4 -188 -3 -183 -5 3 -52 61 -103
129 -51 67 -101 132 -111 143 l-19 22 -171 -59 c-94 -33 -173 -57 -176 -55 -2
3 41 70 97 150 55 80 101 151 101 157 0 13 -118 169 -128 169 -7 0 -313 -1291
-312 -1316 0 -12 15 -23 277 -202 106 -73 196 -132 200 -132 9 1 1496 2147
1501 2165 2 7 -237 178 -530 381 -293 203 -569 394 -613 426 -44 32 -85 58
-91 58 -6 0 -46 -51 -89 -112z"/>
<path d="M723 4010 c-27 -11 -43 -40 -43 -78 0 -51 26 -70 137 -97 56 -14 109
-25 118 -25 26 0 75 55 75 84 0 50 -37 76 -145 102 -110 26 -111 26 -142 14z"/>
<path d="M4015 3915 c-30 -29 -33 -83 -7 -113 9 -11 86 -68 171 -126 173 -119
193 -125 243 -76 25 26 29 36 24 63 -8 41 -13 46 -195 171 -168 116 -193 124
-236 81z"/>
<path d="M1240 3887 c-59 -30 -64 -99 -10 -138 25 -18 350 -99 396 -99 37 0
74 42 74 83 0 59 -26 73 -236 122 -104 25 -191 45 -194 45 -3 0 -16 -6 -30
-13z"/>
<path d="M1917 3718 c-22 -17 -36 -68 -26 -95 4 -12 18 -29 31 -37 28 -18 345
-96 392 -96 66 0 102 59 72 118 -19 36 -9 33 -217 82 -182 43 -225 47 -252 28z"/>
<path d="M4603 3515 c-26 -18 -37 -63 -24 -97 13 -35 165 -139 213 -145 30 -5
41 -1 62 20 55 55 29 106 -98 191 -73 49 -115 58 -153 31z"/>
<path d="M965 3473 c-79 -316 -593 -2539 -588 -2544 7 -5 1395 -333 1447 -341
17 -3 46 114 321 1282 166 707 301 1286 300 1287 -2 3 -1387 329 -1437 338
-33 6 -36 5 -43 -22z m524 -1088 c40 -93 73 -171 75 -173 3 -2 88 4 191 13
103 9 189 14 191 13 1 -2 -62 -59 -142 -127 -79 -69 -144 -126 -144 -128 0 -2
32 -79 70 -171 39 -91 69 -169 68 -174 -2 -4 -70 33 -152 83 -83 50 -156 93
-163 96 -7 3 -76 -50 -154 -117 -77 -67 -143 -120 -145 -117 -2 2 14 80 36
173 22 93 40 176 40 184 0 9 -66 55 -155 109 -86 52 -158 97 -160 101 -3 4 68
13 158 20 243 18 213 -6 263 205 23 99 43 182 43 184 2 10 13 -13 80 -174z"/>
</g>
</svg>
